<svg width="30" height="22" viewBox="0 0 30 22" fill="none" xmlns="http://www.w3.org/2000/svg">
<path d="M0 0.625V2.5H17.8125V16.5625H12.041C11.6235 14.9512 10.1733 13.75 8.4375 13.75C6.70166 13.75 5.25147 14.9512 4.83398 16.5625H3.75V11.875H1.875V18.4375H4.83398C5.25147 20.0488 6.70166 21.25 8.4375 21.25C10.1733 21.25 11.6235 20.0488 12.041 18.4375H19.834C20.2515 20.0488 21.7017 21.25 23.4375 21.25C25.1733 21.25 26.6235 20.0488 27.041 18.4375H30V10.791L29.9414 10.6445L28.0664 5.01953L27.8613 4.375H19.6875V0.625H0ZM0.9375 4.375V6.25H9.375V4.375H0.9375ZM19.6875 6.25H26.5137L28.125 11.0547V16.5625H27.041C26.6235 14.9512 25.1733 13.75 23.4375 13.75C21.7017 13.75 20.2515 14.9512 19.834 16.5625H19.6875V6.25ZM1.875 8.125V10H7.5V8.125H1.875ZM8.4375 15.625C9.48486 15.625 10.3125 16.4526 10.3125 17.5C10.3125 18.5474 9.48486 19.375 8.4375 19.375C7.39014 19.375 6.5625 18.5474 6.5625 17.5C6.5625 16.4526 7.39014 15.625 8.4375 15.625ZM23.4375 15.625C24.4849 15.625 25.3125 16.4526 25.3125 17.5C25.3125 18.5474 24.4849 19.375 23.4375 19.375C22.3901 19.375 21.5625 18.5474 21.5625 17.5C21.5625 16.4526 22.3901 15.625 23.4375 15.625Z" fill="#3E3E3E"/>
</svg>
