<svg width="30" height="21" viewBox="0 0 30 21" fill="none" xmlns="http://www.w3.org/2000/svg">
<path d="M17.8125 0.625V1.97266L17.9004 2.14844L18.8672 4.375H10.7227L10.4297 4.78516L7.88086 8.38867C7.31323 8.21289 6.71631 8.125 6.09375 8.125C2.7356 8.125 0 10.8569 0 14.2188C0 17.5806 2.73193 20.3125 6.09375 20.3125C9.29443 20.3125 11.9128 17.8259 12.1582 14.6875H15.3809L15.6738 14.2773L20.2441 7.53906L20.8594 8.94531C19.0393 10.0037 17.8125 11.9775 17.8125 14.2188C17.8125 17.5659 20.5591 20.3125 23.9062 20.3125C27.2534 20.3125 30 17.5659 30 14.2188C30 10.8716 27.2534 8.125 23.9062 8.125C23.4558 8.125 23.0127 8.17627 22.5879 8.27148L20.0684 2.5H22.9688C23.2361 2.5 23.4375 2.70142 23.4375 2.96875C23.4375 3.23608 23.2361 3.4375 22.9688 3.4375V5.3125C24.2505 5.3125 25.3125 4.25049 25.3125 2.96875C25.3125 1.68701 24.2505 0.625 22.9688 0.625H17.8125ZM7.5 1.5625V3.4375H13.125L12.1875 1.5625H7.5ZM12.627 6.25H18.8672L15.0879 11.8164L12.627 6.25ZM10.9863 7.1875L13.4473 12.8125H5.625V14.6875H10.2539C10.0159 16.7896 8.25806 18.4375 6.09375 18.4375C3.76831 18.4375 1.875 16.5442 1.875 14.2188C1.875 11.8933 3.76831 10 6.09375 10C7.55493 10 8.85132 10.7471 9.60938 11.875H11.7188C11.2683 10.7947 10.5286 9.86816 9.58008 9.20898L10.9863 7.1875ZM23.9062 10C26.2317 10 28.125 11.8933 28.125 14.2188C28.125 16.5442 26.2317 18.4375 23.9062 18.4375C21.5808 18.4375 19.6875 16.5442 19.6875 14.2188C19.6875 12.7429 20.4675 11.4575 21.6211 10.7031L23.5254 15.0684L25.2246 14.3066L23.3789 10.0586C23.5547 10.0366 23.7268 10 23.9062 10Z" fill="#3E3E3E"/>
</svg>
