<svg width="102" height="102" viewBox="0 0 102 102" fill="none" xmlns="http://www.w3.org/2000/svg">
<path d="M11.4369 54.0981H17.4592L20.8049 37.4531H14.7826L11.4369 54.0981ZM16.0373 35.9475H23.1469L24.3179 30.0925H17.2083L16.0373 35.9475ZM19.8012 58.7821H25.8235L29.5038 40.7988H34.0205L34.6897 37.4531H30.2566L30.4239 36.7003C30.6748 35.2784 31.1767 33.6892 33.435 33.6892C34.7733 33.6892 36.028 33.7728 37.2826 34.3583L37.9518 30.8453C36.5298 30.3435 35.0242 30.0925 33.6023 30.0925C28.751 30.0925 25.4053 32.9364 24.1506 37.4531H22.0596L21.3904 40.7988H23.4815L19.8012 58.7821Z" fill="#EA1D2C"/>
<path d="M38.8717 54.4326C45.9814 54.4326 50.9163 47.9921 50.9163 42.7225C50.9163 38.7913 47.3197 37.1185 43.8067 37.1185C36.0278 37.1185 31.762 44.0608 31.762 48.8285C31.762 52.7597 35.4423 54.4326 38.8717 54.4326ZM57.9423 54.4326C65.052 54.4326 69.9869 47.9921 69.9869 42.7225C69.9869 38.7913 66.3067 37.1185 62.7936 37.1185C55.0148 37.1185 50.749 44.0608 50.749 48.8285C50.749 52.7597 54.513 54.4326 57.9423 54.4326ZM79.7732 54.098H85.7119L90.5632 30.427H84.5409L83.1189 37.453L80.6096 37.2021C74.7546 37.2021 69.4015 44.73 69.4015 50.0831C69.4015 52.2579 70.8234 54.4326 73.249 54.4326C76.6784 54.4326 79.1041 52.7597 80.1078 51.0869H80.4423L79.7732 54.098ZM61.2044 66.5608C56.5298 70.4336 50.5261 72.3248 44.4758 71.8303C36.5297 71.3285 30.842 65.2225 29.8383 58.782H30.1728C32.013 62.7969 36.4461 66.5608 41.8829 67.1463C47.4033 67.8155 54.0111 65.3062 57.6078 61.8768L53.5929 58.782H65.7212L63.0446 71.6631L61.2881 66.6445L61.2044 66.5608Z" fill="#EA1D2C"/>
</svg>
