<svg width="22" height="26" viewBox="0 0 22 26" fill="none" xmlns="http://www.w3.org/2000/svg">
<path d="M11 0.8125C8.42554 0.8125 6.3125 2.92554 6.3125 5.5V6.4375H1.68359L1.625 7.31641L0.6875 24.1914L0.628906 25.1875H21.3711L21.3125 24.1914L20.375 7.31641L20.3164 6.4375H15.6875V5.5C15.6875 2.92554 13.5745 0.8125 11 0.8125ZM11 2.6875C12.5527 2.6875 13.8125 3.94727 13.8125 5.5V6.4375H8.1875V5.5C8.1875 3.94727 9.44727 2.6875 11 2.6875ZM3.44141 8.3125H6.3125V11.125H8.1875V8.3125H13.8125V11.125H15.6875V8.3125H18.5586L19.3789 23.3125H2.62109L3.44141 8.3125Z" fill="#3E3E3E"/>
</svg>
