<svg width="80" height="42" viewBox="0 0 80 42" fill="none" xmlns="http://www.w3.org/2000/svg">
<path d="M0.43689 24.0981H6.45919L9.80492 7.45313H3.78261L0.43689 24.0981ZM5.03726 5.94755H12.1469L13.3179 0.0925293H6.20826L5.03726 5.94755ZM8.8012 28.7821H14.8235L18.5038 10.7988H23.0205L23.6897 7.45313H19.2566L19.4239 6.70034C19.6748 5.2784 20.1767 3.68918 22.435 3.68918C23.7733 3.68918 25.028 3.77283 26.2826 4.35833L26.9518 0.845317C25.5298 0.343458 24.0242 0.0925293 22.6023 0.0925293C17.751 0.0925293 14.4053 2.9364 13.1506 7.45313H11.0596L10.3904 10.7988H12.4815L8.8012 28.7821Z" fill="#EA1D2C"/>
<path d="M27.8717 24.4326C34.9814 24.4326 39.9163 17.9921 39.9163 12.7225C39.9163 8.79131 36.3197 7.11845 32.8067 7.11845C25.0278 7.11845 20.762 14.0608 20.762 18.8285C20.762 22.7597 24.4423 24.4326 27.8717 24.4326ZM46.9423 24.4326C54.052 24.4326 58.9869 17.9921 58.9869 12.7225C58.9869 8.79131 55.3067 7.11845 51.7936 7.11845C44.0148 7.11845 39.749 14.0608 39.749 18.8285C39.749 22.7597 43.513 24.4326 46.9423 24.4326V24.4326ZM68.7732 24.098H74.7119L79.5632 0.427002H73.5409L72.1189 7.45303L69.6096 7.20209C63.7546 7.20209 58.4015 14.73 58.4015 20.0831C58.4015 22.2579 59.8234 24.4326 62.249 24.4326C65.6784 24.4326 68.1041 22.7597 69.1078 21.0869H69.4423L68.7732 24.098ZM50.2044 36.5608C45.5298 40.4336 39.5261 42.3248 33.4758 41.8303C25.5297 41.3285 19.842 35.2225 18.8383 28.782H19.1728C21.013 32.7969 25.4461 36.5608 30.8829 37.1463C36.4033 37.8155 43.0111 35.3062 46.6078 31.8768L42.5929 28.782H54.7212L52.0446 41.6631L50.2881 36.6445L50.2044 36.5608Z" fill="#EA1D2C"/>
</svg>
